<svg width="96" height="96" viewBox="0 0 96 96" fill="none" xmlns="http://www.w3.org/2000/svg">
<rect x="2" y="2" width="92" height="92" rx="2" stroke="#F5F5F7" stroke-width="4"/>
<path d="M17.7017 61L29.8457 29.444H38.3097L50.4537 61H43.0477L40.7937 54.79H27.0397L24.7857 61H17.7017ZM29.0177 49.27H38.8157L36.0097 41.496C35.8871 41.1587 35.7337 40.76 35.5497 40.3C35.3964 39.8093 35.2277 39.2727 35.0437 38.69C34.8597 38.1073 34.6757 37.54 34.4917 36.988C34.3384 36.4053 34.1851 35.884 34.0317 35.424H33.7557C33.6024 36.0067 33.4031 36.6967 33.1577 37.494C32.9124 38.2607 32.6671 39.012 32.4217 39.748C32.1764 40.4533 31.9771 41.036 31.8237 41.496L29.0177 49.27ZM58.5329 69.648C57.4595 69.648 56.4475 69.418 55.4969 68.958C54.5462 68.5287 53.7795 67.8847 53.1969 67.026C52.6142 66.1673 52.3229 65.14 52.3229 63.944C52.3229 62.5947 52.7062 61.5213 53.4729 60.724C54.2702 59.896 55.1595 59.2827 56.1409 58.884C55.4355 58.4853 54.8529 57.964 54.3929 57.32C53.9635 56.676 53.7489 55.9247 53.7489 55.066C53.7489 53.87 54.1782 52.904 55.0369 52.168C55.9262 51.4013 56.9382 50.9107 58.0729 50.696C56.9382 49.9907 56.0489 49.1013 55.4049 48.028C54.7915 46.924 54.4849 45.6973 54.4849 44.348C54.4849 42.6 54.9142 41.128 55.7729 39.932C56.6622 38.736 57.9195 37.8313 59.5449 37.218C61.2009 36.574 63.1482 36.252 65.3869 36.252C66.2762 36.252 67.1042 36.298 67.8709 36.39C68.6682 36.482 69.3889 36.6353 70.0329 36.85C71.1675 36.1753 71.9342 35.4393 72.3329 34.642C72.7622 33.814 72.9922 33.1547 73.0229 32.664H78.9569C78.9569 33.7987 78.7422 34.78 78.3129 35.608C77.9142 36.436 77.3315 37.126 76.5649 37.678C75.7982 38.1993 74.8782 38.5827 73.8049 38.828C74.6022 39.5027 75.2155 40.3153 75.6449 41.266C76.0742 42.2167 76.2889 43.244 76.2889 44.348C76.2889 46.0653 75.8749 47.5373 75.0469 48.764C74.2189 49.96 73.0382 50.88 71.5049 51.524C70.0022 52.168 68.1929 52.49 66.0769 52.49H62.3969C61.6609 52.49 61.1089 52.628 60.7409 52.904C60.3729 53.1493 60.1889 53.5173 60.1889 54.008C60.1889 54.4067 60.3422 54.7593 60.6489 55.066C60.9862 55.342 61.5229 55.48 62.2589 55.48H72.3329C74.3569 55.48 75.9669 56.1087 77.1629 57.366C78.3895 58.5927 79.0029 60.172 79.0029 62.104C79.0029 63.576 78.6195 64.8793 77.8529 66.014C77.0862 67.1487 76.0282 68.038 74.6789 68.682C73.3295 69.326 71.7809 69.648 70.0329 69.648H58.5329ZM61.2009 65.37H69.7109C70.2629 65.37 70.7535 65.2627 71.1829 65.048C71.6122 64.864 71.9495 64.588 72.1949 64.22C72.4402 63.8827 72.5629 63.484 72.5629 63.024C72.5629 62.2267 72.3175 61.6287 71.8269 61.23C71.3362 60.8313 70.7229 60.632 69.9869 60.632H61.2009C60.4649 60.632 59.8515 60.8467 59.3609 61.276C58.9009 61.7053 58.6709 62.2727 58.6709 62.978C58.6709 63.6833 58.9009 64.2507 59.3609 64.68C59.8515 65.14 60.4649 65.37 61.2009 65.37ZM65.3869 48.35C66.8895 48.35 68.0242 48.0127 68.7909 47.338C69.5882 46.6327 69.9869 45.636 69.9869 44.348C69.9869 43.06 69.5882 42.0787 68.7909 41.404C68.0242 40.6987 66.8895 40.346 65.3869 40.346C63.9149 40.346 62.7802 40.6987 61.9829 41.404C61.2162 42.0787 60.8329 43.06 60.8329 44.348C60.8329 45.176 61.0015 45.8967 61.3389 46.51C61.6762 47.1233 62.1822 47.5833 62.8569 47.89C63.5315 48.1967 64.3749 48.35 65.3869 48.35Z" fill="#F5F5F7"/>
<circle cx="84" cy="12" r="4" fill="#999999"/>
<rect x="8" y="84" width="48" height="4" rx="2" fill="#999999"/>
<rect x="8" y="76" width="24" height="4" rx="2" fill="#999999"/>
</svg>
