<svg width="96" height="96" viewBox="0 0 96 96" fill="none" xmlns="http://www.w3.org/2000/svg">
<rect x="2" y="2" width="92" height="92" rx="2" stroke="#F5F5F7" stroke-width="4"/>
<path d="M34.9764 61.552C31.695 61.552 28.889 60.9847 26.5584 59.85C24.2277 58.6847 22.449 56.8907 21.2224 54.468C20.0264 52.0453 19.4284 48.9633 19.4284 45.222C19.4284 39.702 20.7777 35.608 23.4764 32.94C26.2057 30.2413 30.039 28.892 34.9764 28.892C37.675 28.892 40.0977 29.352 42.2444 30.272C44.391 31.192 46.0777 32.572 47.3044 34.412C48.5617 36.252 49.1904 38.5673 49.1904 41.358H42.2904C42.2904 39.886 41.9837 38.644 41.3704 37.632C40.7877 36.62 39.9444 35.8533 38.8404 35.332C37.767 34.78 36.5097 34.504 35.0684 34.504C33.1057 34.504 31.4804 34.8873 30.1924 35.654C28.935 36.4207 27.9997 37.5553 27.3864 39.058C26.8037 40.53 26.5124 42.3393 26.5124 44.486V45.912C26.5124 48.12 26.819 49.9753 27.4324 51.478C28.0457 52.95 28.9657 54.0693 30.1924 54.836C31.4497 55.572 33.0597 55.94 35.0224 55.94C36.5557 55.94 37.8897 55.6793 39.0244 55.158C40.159 54.6367 41.033 53.87 41.6464 52.858C42.2597 51.846 42.5664 50.604 42.5664 49.132H49.1904C49.1904 51.9227 48.577 54.238 47.3504 56.078C46.1544 57.918 44.483 59.298 42.3364 60.218C40.1897 61.1073 37.7364 61.552 34.9764 61.552ZM62.7787 61.552C60.3254 61.552 58.378 60.8773 56.9367 59.528C55.4954 58.1787 54.7747 56.0013 54.7747 52.996V36.804H61.1687V51.938C61.1687 52.7353 61.2607 53.41 61.4447 53.962C61.6287 54.4833 61.8894 54.9127 62.2267 55.25C62.5947 55.5873 63.0394 55.8327 63.5607 55.986C64.082 56.1393 64.6647 56.216 65.3087 56.216C66.2594 56.216 67.118 55.986 67.8847 55.526C68.6514 55.066 69.2494 54.4373 69.6787 53.64C70.108 52.812 70.3227 51.892 70.3227 50.88V36.804H76.7167V61H71.4727L71.0127 57.688H70.6907C70.108 58.4547 69.418 59.1293 68.6207 59.712C67.854 60.2947 66.98 60.7393 65.9987 61.046C65.0174 61.3833 63.944 61.552 62.7787 61.552Z" fill="#F5F5F7"/>
<circle cx="84" cy="12" r="4" fill="#999999"/>
<rect x="8" y="84" width="48" height="4" rx="2" fill="#999999"/>
<rect x="8" y="76" width="24" height="4" rx="2" fill="#999999"/>
</svg>
