<svg width="94" height="120" viewBox="0 0 94 120" fill="none" xmlns="http://www.w3.org/2000/svg">
<rect x="18.3066" y="43.5036" width="8.74627" height="8.74627" transform="rotate(45 18.3066 43.5036)" stroke="#999999" stroke-width="2"/>
<rect x="18.3066" y="79.3249" width="8.74627" height="8.74627" transform="rotate(45 18.3066 79.3249)" stroke="#999999" stroke-width="2"/>
<rect x="28.1582" y="61.4142" width="8.74627" height="8.74627" transform="rotate(45 28.1582 61.4142)" stroke="#999999" stroke-width="2"/>
<path d="M15.0445 67.5989L8.85872 73.7847L7.18624 72.1205V62.7057L8.80002 61.3544L15.0445 67.5989Z" stroke="#999999" stroke-width="2"/>
<path d="M13.7899 103.637L7.60409 109.823L5.98962 108.216L7.20082 99.2408L7.90378 97.7506L13.7899 103.637Z" stroke="#999999" stroke-width="2"/>
<rect x="28.1582" y="97.235" width="8.74627" height="8.74627" transform="rotate(45 28.1582 97.235)" stroke="#999999" stroke-width="2"/>
<rect x="37.1133" y="43.5036" width="8.74627" height="8.74627" transform="rotate(45 37.1133 43.5036)" stroke="#999999" stroke-width="2"/>
<rect x="37.1133" y="79.3249" width="8.74627" height="8.74627" transform="rotate(45 37.1133 79.3249)" stroke="#999999" stroke-width="2"/>
<rect x="46.9629" y="61.4142" width="8.74627" height="8.74627" transform="rotate(45 46.9629 61.4142)" stroke="#999999" stroke-width="2"/>
<rect x="46.9629" y="97.235" width="8.74627" height="8.74627" transform="rotate(45 46.9629 97.235)" stroke="#999999" stroke-width="2"/>
<rect x="55.918" y="43.5036" width="8.74627" height="8.74627" transform="rotate(45 55.918 43.5036)" stroke="#999999" stroke-width="2"/>
<rect x="55.918" y="79.3249" width="8.74627" height="8.74627" transform="rotate(45 55.918 79.3249)" stroke="#999999" stroke-width="2"/>
<rect x="65.7695" y="61.4142" width="8.74627" height="8.74627" transform="rotate(45 65.7695 61.4142)" stroke="#999999" stroke-width="2"/>
<path d="M84.9325 62.1255V71.8813L84.2468 73.4537L78.3917 67.5986L84.4726 61.5178L84.9325 62.1255Z" stroke="#999999" stroke-width="2"/>
<path d="M85.3989 99.1629L86.6639 108.451L85.4769 109.617L79.2863 103.426L84.9825 97.7301L85.3989 99.1629Z" stroke="#999999" stroke-width="2"/>
<rect x="65.7695" y="97.235" width="8.74627" height="8.74627" transform="rotate(45 65.7695 97.235)" stroke="#999999" stroke-width="2"/>
<rect x="74.7246" y="43.5036" width="8.74627" height="8.74627" transform="rotate(45 74.7246 43.5036)" stroke="#999999" stroke-width="2"/>
<rect x="74.7246" y="79.3249" width="8.74627" height="8.74627" transform="rotate(45 74.7246 79.3249)" stroke="#999999" stroke-width="2"/>
<path d="M85.167 2L87.4922 14.4023C87.1856 17.221 84.8262 39.7739 84.8262 66.2686C84.8262 94.0077 86.5534 107.978 87.4648 117.787C87.439 117.827 87.4135 117.869 87.3857 117.908C87.3617 117.942 87.338 117.972 87.3164 118H5.56934C7.33725 97.7507 8.22958 93.9568 8.22949 66.2686C8.22945 52.3451 7.55691 44.4564 6.88281 37.4902C6.21312 30.5696 5.55088 24.6375 5.54297 14.5117L7.88867 2H85.167Z" stroke="#F5F5F7" stroke-width="4"/>
<path d="M6.23047 35.8208H86.8275" stroke="#F5F5F7" stroke-width="4"/>
<path d="M6.23047 14.3281H86.8275" stroke="#F5F5F7" stroke-width="2"/>
</svg>
