<svg width="96" height="96" viewBox="0 0 96 96" fill="none" xmlns="http://www.w3.org/2000/svg">
<rect x="2" y="2" width="92" height="92" rx="2" stroke="#F5F5F7" stroke-width="4"/>
<path d="M20.4657 61V58.056L36.8417 35.056H21.6157V29.444H47.1917V32.388L30.8157 55.342H47.5597V61H20.4657ZM53.0944 61V36.804H58.3844L58.8904 40.116H59.2124C59.7644 39.3187 60.4238 38.6287 61.1904 38.046C61.9878 37.4633 62.8771 37.0187 63.8584 36.712C64.8398 36.4053 65.9131 36.252 67.0784 36.252C68.6731 36.252 70.0684 36.5433 71.2644 37.126C72.4604 37.7087 73.3804 38.6287 74.0244 39.886C74.6991 41.1433 75.0364 42.784 75.0364 44.808V61H68.6424V45.82C68.6424 45.0533 68.5504 44.4093 68.3664 43.888C68.1824 43.336 67.9064 42.8913 67.5384 42.554C67.2011 42.186 66.7718 41.9253 66.2504 41.772C65.7291 41.6187 65.1464 41.542 64.5024 41.542C63.5518 41.542 62.6931 41.772 61.9264 42.232C61.1598 42.692 60.5618 43.3207 60.1324 44.118C59.7031 44.9153 59.4884 45.8353 59.4884 46.878V61H53.0944Z" fill="#F5F5F7"/>
<circle cx="84" cy="12" r="4" fill="#999999"/>
<rect x="8" y="84" width="48" height="4" rx="2" fill="#999999"/>
<rect x="8" y="76" width="24" height="4" rx="2" fill="#999999"/>
</svg>
