<svg width="17" height="12" viewBox="0 0 17 12" fill="none" xmlns="http://www.w3.org/2000/svg">
<path d="M15.6022 0.000898904C15.3026 0.0103218 15.0185 0.135087 14.8102 0.348713C11.9515 3.18782 8.89149 6.44102 6.03537 9.31209L1.95845 5.98537C1.84436 5.87458 1.70826 5.7885 1.55881 5.73262C1.40935 5.67673 1.24981 5.65227 1.0903 5.66076C0.93079 5.66925 0.774806 5.71052 0.632253 5.78195C0.4897 5.85338 0.363692 5.95339 0.262234 6.07566C0.160775 6.19793 0.0860822 6.33977 0.0428985 6.49218C-0.000285266 6.64458 -0.0110161 6.80422 0.0113875 6.96095C0.0337911 7.11769 0.0888396 7.2681 0.173037 7.40262C0.257234 7.53715 0.368741 7.65285 0.500474 7.74239L5.39639 11.738C5.61716 11.919 5.89807 12.012 6.18429 11.9988C6.4705 11.9856 6.74149 11.8672 6.94436 11.6666C10.0399 8.59243 13.3998 4.99047 16.4482 1.96303C16.6161 1.80231 16.7309 1.59481 16.7771 1.36803C16.8234 1.14125 16.7991 0.905896 16.7073 0.693131C16.6156 0.480367 16.4608 0.300245 16.2635 0.176626C16.0661 0.0530079 15.8355 -0.00827954 15.6022 0.000898904Z" fill="white"/>
</svg>
