<svg width="96" height="96" viewBox="0 0 96 96" fill="none" xmlns="http://www.w3.org/2000/svg">
<rect x="2" y="2" width="92" height="92" rx="2" stroke="#F5F5F7" stroke-width="4"/>
<path d="M27.5643 61V29.444H33.8663L46.5623 46.464C46.7463 46.6787 46.9763 46.9853 47.2523 47.384C47.5283 47.752 47.789 48.12 48.0343 48.488C48.2797 48.856 48.4483 49.1473 48.5403 49.362H48.7703C48.7703 48.8407 48.7703 48.3347 48.7703 47.844C48.7703 47.3227 48.7703 46.8627 48.7703 46.464V29.444H55.2563V61H48.9543L35.9823 43.566C35.6757 43.1367 35.3537 42.6613 35.0163 42.14C34.679 41.6187 34.4337 41.22 34.2803 40.944H34.0503C34.0503 41.404 34.0503 41.864 34.0503 42.324C34.0503 42.7533 34.0503 43.1673 34.0503 43.566V61H27.5643ZM62.612 33.262V27.742H69.006V33.262H62.612ZM62.612 61V36.804H69.006V61H62.612Z" fill="#F5F5F7"/>
<circle cx="84" cy="12" r="4" fill="#999999"/>
<rect x="8" y="84" width="48" height="4" rx="2" fill="#999999"/>
<rect x="8" y="76" width="24" height="4" rx="2" fill="#999999"/>
</svg>
